<mxfile host="drawio-plugin" modified="2024-02-28T05:03:06.302Z" agent="5.0 (X11; Linux x86_64) AppleWebKit/537.36 (KHTML, like Gecko) Chrome/111.0.0.0 Safari/537.36" etag="6sS02OTSmPFWpjzVtFH4" version="20.5.3" type="embed"><diagram id="1L3MG6n7LMCK7FQK8iv7" name="Page-1"><mxGraphModel dx="937" dy="738" grid="1" gridSize="10" guides="1" tooltips="1" connect="1" arrows="1" fold="1" page="1" pageScale="1" pageWidth="827" pageHeight="1169" math="0" shadow="0"><root><mxCell id="0"/><mxCell id="1" parent="0"/><mxCell id="6" style="edgeStyle=orthogonalEdgeStyle;rounded=0;orthogonalLoop=1;jettySize=auto;html=1;entryX=0;entryY=0.5;entryDx=0;entryDy=0;exitX=0.5;exitY=0.5;exitDx=0;exitDy=0;exitPerimeter=0;" parent="1" source="5" edge="1"><mxGeometry relative="1" as="geometry"><mxPoint x="170" y="100" as="targetPoint"/></mxGeometry></mxCell><mxCell id="5" value="Actor" style="shape=umlActor;verticalLabelPosition=bottom;verticalAlign=top;html=1;outlineConnect=0;" parent="1" vertex="1"><mxGeometry x="70" y="70" width="20" height="60" as="geometry"/></mxCell><mxCell id="12" style="edgeStyle=orthogonalEdgeStyle;rounded=0;orthogonalLoop=1;jettySize=auto;html=1;exitX=1;exitY=0.5;exitDx=0;exitDy=0;" edge="1" parent="1" source="10"><mxGeometry relative="1" as="geometry"><mxPoint x="375" y="160" as="targetPoint"/></mxGeometry></mxCell><mxCell id="19" value="CreateUser" style="edgeLabel;html=1;align=center;verticalAlign=middle;resizable=0;points=[];" vertex="1" connectable="0" parent="12"><mxGeometry x="-0.2276" y="-1" relative="1" as="geometry"><mxPoint as="offset"/></mxGeometry></mxCell><mxCell id="10" value="API Gateway" style="rounded=0;whiteSpace=wrap;html=1;" vertex="1" parent="1"><mxGeometry x="170" y="70" width="120" height="60" as="geometry"/></mxCell><mxCell id="20" value="user-service" style="verticalAlign=top;align=left;spacingTop=8;spacingLeft=2;spacingRight=12;shape=cube;size=10;direction=south;fontStyle=4;html=1;" vertex="1" parent="1"><mxGeometry x="290" y="160" width="390" height="270" as="geometry"/></mxCell><mxCell id="23" value="" style="edgeStyle=orthogonalEdgeStyle;rounded=0;orthogonalLoop=1;jettySize=auto;html=1;" edge="1" parent="1" source="21" target="22"><mxGeometry relative="1" as="geometry"/></mxCell><mxCell id="21" value="controller" style="rounded=1;whiteSpace=wrap;html=1;" vertex="1" parent="1"><mxGeometry x="300" y="220" width="90" height="50" as="geometry"/></mxCell><mxCell id="22" value="generate JWT" style="ellipse;whiteSpace=wrap;html=1;rounded=1;" vertex="1" parent="1"><mxGeometry x="455" y="215" width="120" height="60" as="geometry"/></mxCell></root></mxGraphModel></diagram></mxfile>